<svg width="63" height="79" viewBox="0 0 63 79" fill="none" xmlns="http://www.w3.org/2000/svg">
<g filter="url(#filter0_d)">
<path d="M43.4897 41.475C43.3293 41.46 43.1678 41.46 43.0073 41.475C42.3667 41.4667 41.7428 41.6802 41.2407 42.0796C40.7387 42.4789 40.3892 43.0396 40.2511 43.6673C40.205 43.8314 40.1785 44.0005 40.1724 44.1709L39.4242 58.2625H43.47L45.8325 44.6054C45.8325 44.4869 45.8325 44.4079 45.8325 44.319C45.8306 44.106 45.8042 43.8939 45.7538 43.687C45.6343 43.1362 45.3559 42.6328 44.9533 42.2394C44.5508 41.8461 44.0418 41.5803 43.4897 41.475V41.475Z" fill="#6B462C"/>
<path d="M35.3489 41.475C34.7054 41.464 34.0777 41.6761 33.572 42.0755C33.0663 42.4749 32.7134 43.0371 32.573 43.6673C32.5158 43.8798 32.486 44.0989 32.4844 44.319V58.2625H37.4062L38.1248 44.4375C38.1406 44.1662 38.1208 43.8939 38.0658 43.6278C37.9076 43.0215 37.5569 42.4834 37.0667 42.095C36.5765 41.7066 35.9734 41.4889 35.3489 41.475Z" fill="#6B462C"/>
<path d="M28.1728 41.475C28.0091 41.4603 27.8444 41.4603 27.6806 41.475C27.0364 41.4761 26.4112 41.6936 25.9045 42.0927C25.3978 42.4918 25.0389 43.0496 24.885 43.6771C24.8293 43.9398 24.8094 44.2089 24.8259 44.477L25.5938 58.2625H30.5156V44.319C30.5137 44.106 30.4873 43.8939 30.4369 43.687C30.3247 43.1328 30.0487 42.6253 29.6449 42.2308C29.241 41.8362 28.7281 41.5728 28.1728 41.475V41.475Z" fill="#6B462C"/>
<path d="M22.7686 43.7166C22.6279 43.0825 22.2765 42.5153 21.7721 42.1079C21.2677 41.7006 20.6402 41.4774 19.9927 41.475C19.3556 41.4809 18.7388 41.6997 18.2396 42.0968C17.7404 42.4938 17.3874 43.0464 17.2364 43.6673C17.1553 43.9897 17.1319 44.3241 17.1675 44.6548L19.53 58.2625H23.625L22.8769 44.1709C22.8547 44.0165 22.8185 43.8644 22.7686 43.7166V43.7166Z" fill="#6B462C"/>
<path d="M48.0769 32.6665C47.8044 32.6136 47.5275 32.5871 47.25 32.5875H43.3125C43.0514 32.5875 42.801 32.4835 42.6164 32.2983C42.4318 32.1131 42.3281 31.8619 42.3281 31.6C42.3281 31.3381 42.4318 31.0869 42.6164 30.9017C42.801 30.7165 43.0514 30.6125 43.3125 30.6125H47.25C47.0785 27.7573 46.1347 25.003 44.52 22.6455C42.9053 20.288 40.6808 18.4164 38.0855 17.2319V17.2319L37.7902 17.4689L37.5244 17.6762L37.2389 17.8935L36.9633 18.091L36.6778 18.2885L36.412 18.4662L36.1167 18.6539L35.8608 18.8119L35.5655 18.9797L35.3194 19.1279L35.0438 19.276L34.7977 19.4044L34.5319 19.5426L34.3153 19.6611L34.0495 19.7796L33.8428 19.8784L33.6066 19.987L33.4195 20.066L33.1931 20.1647L33.0258 20.2339L32.8289 20.3129H32.7009L32.5041 20.3919H32.4155L32.2481 20.461L31.9036 20.5795C31.7165 20.6289 31.5198 20.6289 31.3327 20.5795C29.4764 19.9595 27.7216 19.0677 26.1253 17.933C25.8103 17.7157 25.4953 17.4689 25.1409 17.2022L25.0228 17.1134C22.3889 18.29 20.1296 20.1727 18.4935 22.5544C16.8575 24.9361 15.9082 27.7244 15.75 30.6125H19.6875C19.9486 30.6125 20.199 30.7165 20.3836 30.9017C20.5682 31.0869 20.6719 31.3381 20.6719 31.6C20.6719 31.8619 20.5682 32.1131 20.3836 32.2983C20.199 32.4835 19.9486 32.5875 19.6875 32.5875H15.75C15.4794 32.5851 15.2091 32.6083 14.9428 32.6566V32.6566C13.938 32.8162 13.0102 33.2937 12.2948 34.0194C11.8316 34.4775 11.4634 35.0232 11.2117 35.6249C10.9599 36.2266 10.8295 36.8724 10.8281 37.525C10.8273 38.8043 11.3215 40.034 12.2065 40.955C13.0916 41.876 14.2984 42.4164 15.5728 42.4625C15.6319 42.3144 15.7106 42.1761 15.7795 42.0379C15.8484 41.8996 15.8583 41.8799 15.9075 41.8107C15.9567 41.7416 16.0748 41.5639 16.1634 41.4355L16.3505 41.1985L16.6359 40.9022L16.882 40.6652L17.1773 40.4381L17.5022 40.2209C17.6006 40.1591 17.7025 40.103 17.8073 40.053L18.2011 39.8654L18.4866 39.7567C18.6464 39.699 18.8111 39.656 18.9788 39.6284C19.0593 39.6029 19.1415 39.5831 19.2248 39.5691C19.4785 39.5257 19.7353 39.5025 19.9927 39.5C21.229 39.4958 22.4185 39.9738 23.31 40.8331C23.4892 40.9997 23.6539 41.1815 23.8022 41.3763L24.0089 41.1392L24.0975 41.0306C24.2559 40.8568 24.427 40.695 24.6094 40.5468L24.7177 40.4677C24.8756 40.3501 25.0399 40.2413 25.2098 40.1419L25.3673 40.053C25.5732 39.9417 25.7871 39.8459 26.0072 39.7666H26.0958C26.2951 39.699 26.4991 39.6461 26.7061 39.6086H26.8931C27.3855 39.5296 27.8872 39.5296 28.3795 39.6086H28.5666C28.7801 39.6461 28.9906 39.6989 29.1966 39.7666H29.2753C29.4986 39.8459 29.7158 39.9416 29.925 40.053L30.0825 40.1419C30.2525 40.2413 30.4168 40.3501 30.5747 40.4677L30.6731 40.5468C30.8578 40.6924 31.0291 40.8543 31.185 41.0306L31.2834 41.1491C31.3541 41.2168 31.4199 41.2894 31.4803 41.3664L31.6378 41.1886L31.7855 41.0109C31.9364 40.8493 32.0975 40.6976 32.2678 40.5566L32.4844 40.4875C32.6277 40.3775 32.779 40.2784 32.9372 40.1913L33.1045 40.0826C33.3081 39.9763 33.5186 39.8839 33.7345 39.8061H33.833C34.0323 39.7385 34.2362 39.6856 34.4433 39.6481H34.6303C34.875 39.6133 35.1215 39.5935 35.3686 39.5889C35.6189 39.5935 35.8688 39.6133 36.1167 39.6481H36.3038C36.5108 39.6856 36.7148 39.7385 36.9141 39.8061H37.0125C37.2326 39.8854 37.4465 39.9812 37.6523 40.0925L37.8197 40.1814C37.9864 40.2808 38.1475 40.3896 38.302 40.5073L38.4103 40.5862C38.5924 40.7313 38.7635 40.8898 38.9222 41.0603L39.0305 41.1886L39.2175 41.4157L39.3455 41.2676L39.5522 41.0306C39.6875 40.8767 39.8357 40.7346 39.9952 40.606L40.192 40.4579L40.5956 40.2011L40.7925 40.0826C40.9918 39.9745 41.1991 39.8821 41.4127 39.8061H41.5308C41.7249 39.7463 41.9221 39.6969 42.1214 39.658H42.3183C42.5629 39.6228 42.8095 39.603 43.0566 39.5987C43.3139 39.6013 43.5707 39.6244 43.8244 39.6679C43.9077 39.6818 43.9899 39.7016 44.0705 39.7271C44.2381 39.7548 44.4028 39.7977 44.5627 39.8555L44.8383 39.9641L45.2616 40.1517C45.3503 40.1986 45.4358 40.2514 45.5175 40.3097C45.6455 40.3887 45.7734 40.4677 45.8916 40.5566L46.1377 40.7442C46.2558 40.843 46.3641 40.9516 46.4723 41.0603C46.543 41.1279 46.6088 41.2005 46.6692 41.2775C46.7775 41.396 46.8759 41.5342 46.9744 41.6626C47.0292 41.7311 47.0785 41.8037 47.122 41.8799C47.2425 42.0687 47.3478 42.2668 47.437 42.4724C47.437 42.4724 47.437 42.5217 47.437 42.5514C48.6496 42.501 49.801 42.003 50.6698 41.1529C51.5387 40.3028 52.0638 39.1607 52.1444 37.9459C52.225 36.7311 51.8553 35.5292 51.1063 34.5712C50.3574 33.6131 49.282 32.9665 48.0867 32.7554L48.0769 32.6665ZM18.4177 37.2386C18.3261 37.3312 18.2173 37.4046 18.0973 37.4548C17.9774 37.5049 17.8487 37.5307 17.7188 37.5307C17.5888 37.5307 17.4601 37.5049 17.3402 37.4548C17.2202 37.4046 17.1114 37.3312 17.0198 37.2386L16.0355 36.2511C15.9437 36.1591 15.8709 36.0497 15.8212 35.9294C15.7715 35.8091 15.746 35.6802 15.746 35.55C15.746 35.4198 15.7715 35.2909 15.8212 35.1706C15.8709 35.0503 15.9437 34.9409 16.0355 34.8489C16.1273 34.7568 16.2362 34.6838 16.3561 34.6339C16.476 34.5841 16.6046 34.5585 16.7344 34.5585C16.8642 34.5585 16.9927 34.5841 17.1126 34.6339C17.2325 34.6838 17.3415 34.7568 17.4333 34.8489L18.4177 35.8364C18.5099 35.9282 18.5832 36.0374 18.6331 36.1577C18.6831 36.2781 18.7088 36.4071 18.7088 36.5375C18.7088 36.6679 18.6831 36.7969 18.6331 36.9173C18.5832 37.0376 18.5099 37.1468 18.4177 37.2386ZM24.3239 24.4011L23.3395 25.3886C23.248 25.4812 23.1391 25.5546 23.0192 25.6048C22.8992 25.6549 22.7706 25.6807 22.6406 25.6807C22.5107 25.6807 22.382 25.6549 22.2621 25.6048C22.1421 25.5546 22.0332 25.4812 21.9417 25.3886C21.8495 25.2968 21.7762 25.1876 21.7262 25.0673C21.6763 24.9469 21.6505 24.8179 21.6505 24.6875C21.6505 24.5571 21.6763 24.4281 21.7262 24.3077C21.7762 24.1874 21.8495 24.0782 21.9417 23.9864L22.9261 22.9989C23.1115 22.8129 23.3629 22.7085 23.625 22.7085C23.8871 22.7085 24.1385 22.8129 24.3239 22.9989C24.5093 23.1848 24.6134 23.437 24.6134 23.7C24.6134 23.963 24.5093 24.2152 24.3239 24.4011ZM31.7855 22.9989C31.877 22.9063 31.9859 22.8329 32.1058 22.7827C32.2258 22.7326 32.3544 22.7068 32.4844 22.7068C32.6143 22.7068 32.743 22.7326 32.8629 22.7827C32.9829 22.8329 33.0918 22.9063 33.1833 22.9989L34.1677 23.9864C34.2599 24.0782 34.3332 24.1874 34.3831 24.3077C34.4331 24.4281 34.4588 24.5571 34.4588 24.6875C34.4588 24.8179 34.4331 24.9469 34.3831 25.0673C34.3332 25.1876 34.2599 25.2968 34.1677 25.3886C34.0761 25.4812 33.9673 25.5546 33.8473 25.6048C33.7274 25.6549 33.5987 25.6807 33.4688 25.6807C33.3388 25.6807 33.2101 25.6549 33.0902 25.6048C32.9702 25.5546 32.8614 25.4812 32.7698 25.3886L31.7855 24.4011C31.6932 24.3093 31.62 24.2001 31.57 24.0798C31.52 23.9594 31.4943 23.8304 31.4943 23.7C31.4943 23.5696 31.52 23.4406 31.57 23.3202C31.62 23.1999 31.6932 23.0907 31.7855 22.9989V22.9989ZM29.2458 37.2386L28.2614 38.2261C28.1699 38.3187 28.061 38.3921 27.9411 38.4423C27.8211 38.4924 27.6925 38.5182 27.5625 38.5182C27.4326 38.5182 27.3039 38.4924 27.1839 38.4423C27.064 38.3921 26.9551 38.3187 26.8636 38.2261C26.7713 38.1343 26.6981 38.0251 26.6481 37.9048C26.5981 37.7844 26.5724 37.6554 26.5724 37.525C26.5724 37.3946 26.5981 37.2656 26.6481 37.1452C26.6981 37.0249 26.7713 36.9157 26.8636 36.8239L27.848 35.8364C27.9398 35.7443 28.0487 35.6713 28.1686 35.6214C28.2886 35.5716 28.4171 35.546 28.5469 35.546C28.6767 35.546 28.8052 35.5716 28.9251 35.6214C29.045 35.6713 29.154 35.7443 29.2458 35.8364C29.3376 35.9284 29.4104 36.0378 29.46 36.1581C29.5097 36.2784 29.5353 36.4073 29.5353 36.5375C29.5353 36.6677 29.5097 36.7966 29.46 36.9169C29.4104 37.0372 29.3376 37.1466 29.2458 37.2386V37.2386ZM34.4531 32.5875H28.5469C28.2858 32.5875 28.0354 32.4835 27.8508 32.2983C27.6662 32.1131 27.5625 31.8619 27.5625 31.6C27.5625 31.3381 27.6662 31.0869 27.8508 30.9017C28.0354 30.7165 28.2858 30.6125 28.5469 30.6125H34.4531C34.7142 30.6125 34.9646 30.7165 35.1492 30.9017C35.3338 31.0869 35.4375 31.3381 35.4375 31.6C35.4375 31.8619 35.3338 32.1131 35.1492 32.2983C34.9646 32.4835 34.7142 32.5875 34.4531 32.5875ZM41.0583 28.3511L40.0739 29.3386C39.9824 29.4312 39.8735 29.5046 39.7536 29.5548C39.6336 29.6049 39.505 29.6307 39.375 29.6307C39.2451 29.6307 39.1164 29.6049 38.9964 29.5548C38.8765 29.5046 38.7676 29.4312 38.6761 29.3386C38.5838 29.2468 38.5106 29.1376 38.4606 29.0173C38.4107 28.8969 38.3849 28.7679 38.3849 28.6375C38.3849 28.5071 38.4107 28.3781 38.4606 28.2577C38.5106 28.1374 38.5838 28.0282 38.6761 27.9364L39.6605 26.9489C39.8458 26.7629 40.0972 26.6585 40.3594 26.6585C40.6215 26.6585 40.8729 26.7629 41.0583 26.9489C41.2436 27.1348 41.3478 27.387 41.3478 27.65C41.3478 27.913 41.2436 28.1652 41.0583 28.3511V28.3511ZM45.9802 37.2386C45.8886 37.3312 45.7798 37.4046 45.6598 37.4548C45.5399 37.5049 45.4112 37.5307 45.2812 37.5307C45.1513 37.5307 45.0226 37.5049 44.9027 37.4548C44.7827 37.4046 44.6739 37.3312 44.5823 37.2386L43.598 36.2511C43.5062 36.1591 43.4334 36.0497 43.3837 35.9294C43.334 35.8091 43.3085 35.6802 43.3085 35.55C43.3085 35.4198 43.334 35.2909 43.3837 35.1706C43.4334 35.0503 43.5062 34.9409 43.598 34.8489C43.6898 34.7568 43.7987 34.6838 43.9186 34.6339C44.0385 34.5841 44.1671 34.5585 44.2969 34.5585C44.4267 34.5585 44.5552 34.5841 44.6751 34.6339C44.795 34.6838 44.904 34.7568 44.9958 34.8489L45.9802 35.8364C46.0724 35.9282 46.1457 36.0374 46.1956 36.1577C46.2456 36.2781 46.2713 36.4071 46.2713 36.5375C46.2713 36.6679 46.2456 36.7969 46.1956 36.9173C46.1457 37.0376 46.0724 37.1468 45.9802 37.2386V37.2386Z" fill="#6B462C"/>
<path d="M25.8005 15.3458C26.2211 15.7415 26.6685 16.1077 27.1392 16.4419C28.4842 17.4053 29.9506 18.1856 31.5 18.7625C33.595 18.0117 35.529 16.869 37.1995 15.3951C38.1828 14.5663 38.9746 13.5329 39.5202 12.3666C40.0659 11.2003 40.3522 9.92896 40.3594 8.64063C40.3568 7.6593 39.967 6.71891 39.2753 6.025C38.5836 5.33109 37.6462 4.94011 36.668 4.9375H36.4219C35.4432 4.93837 34.5049 5.32908 33.8133 6.02375L32.1989 7.61363C32.1074 7.70618 31.9985 7.77965 31.8786 7.82978C31.7586 7.87992 31.6299 7.90573 31.5 7.90573C31.3701 7.90573 31.2414 7.87992 31.1214 7.82978C31.0015 7.77965 30.8926 7.70618 30.8011 7.61363L29.2163 6.02375C28.8703 5.67624 28.4589 5.40124 28.006 5.21475C27.5531 5.02826 27.0677 4.93402 26.5781 4.9375H26.3025C25.3286 4.94532 24.3973 5.33892 23.7114 6.03254C23.0255 6.72617 22.6406 7.66361 22.6406 8.64063C22.6549 9.92061 22.9446 11.1824 23.49 12.3396C24.0354 13.4969 24.8235 14.5223 25.8005 15.3458V15.3458Z" fill="#6B462C"/>
</g>
<defs>
<filter id="filter0_d" x="-2" y="0" width="67" height="83" filterUnits="userSpaceOnUse" color-interpolation-filters="sRGB">
<feFlood flood-opacity="0" result="BackgroundImageFix"/>
<feColorMatrix in="SourceAlpha" type="matrix" values="0 0 0 0 0 0 0 0 0 0 0 0 0 0 0 0 0 0 127 0"/>
<feOffset dy="2"/>
<feGaussianBlur stdDeviation="1"/>
<feColorMatrix type="matrix" values="0 0 0 0 1 0 0 0 0 1 0 0 0 0 1 0 0 0 1 0"/>
<feBlend mode="normal" in2="BackgroundImageFix" result="effect1_dropShadow"/>
<feBlend mode="normal" in="SourceGraphic" in2="effect1_dropShadow" result="shape"/>
</filter>
</defs>
</svg>
