<svg width="35" height="35" viewBox="0 0 35 35" fill="none" xmlns="http://www.w3.org/2000/svg">
<g clip-path="url(#clip0)">
<path d="M32.4758 0H2.52422C1.13007 0 0 1.13007 0 2.52422V32.4758C0 33.8699 1.13007 35 2.52422 35H32.4758C33.8699 35 35 33.8699 35 32.4758V2.52422C35 1.13007 33.8699 0 32.4758 0V0ZM12.4147 26.4551H8.15266V13.6326H12.4147V26.4551ZM10.2838 11.8817H10.256C8.82584 11.8817 7.90085 10.8972 7.90085 9.66671C7.90085 8.40847 8.85414 7.45117 10.3121 7.45117C11.7701 7.45117 12.6673 8.40847 12.6951 9.66671C12.6951 10.8972 11.7701 11.8817 10.2838 11.8817ZM27.7827 26.4551H23.5212V19.5954C23.5212 17.8714 22.9041 16.6957 21.362 16.6957C20.1847 16.6957 19.4835 17.4888 19.1753 18.2544C19.0627 18.5283 19.0351 18.9112 19.0351 19.2944V26.4551H14.7734C14.7734 26.4551 14.8292 14.8356 14.7734 13.6326H19.0351V15.4482C19.6015 14.5744 20.6149 13.3317 22.8761 13.3317C25.6802 13.3317 27.7827 15.1643 27.7827 19.1027V26.4551Z" fill="white"/>
</g>
<defs>
<clipPath id="clip0">
<rect width="35" height="35" fill="white"/>
</clipPath>
</defs>
</svg>
