<svg width="35" height="35" viewBox="0 0 35 35" fill="none" xmlns="http://www.w3.org/2000/svg">
<path d="M33.0742 1.92559C31.7911 0.642208 30.2453 0.000399036 28.4378 0.000399036V0H6.5639C4.75642 0 3.21064 0.641969 1.92702 1.92535C0.643641 3.20897 0.00183105 4.75475 0.00183105 6.56223V28.4365C0.00183105 30.2439 0.643641 31.7898 1.92702 33.0729C3.21064 34.3565 4.7565 34.9983 6.56398 34.9983H10.7339C10.4754 32.6597 10.5286 30.7302 10.8933 29.2113L13.1261 19.7783C12.7616 19.0338 12.5791 18.115 12.5791 17.0215C12.5791 15.7609 12.9019 14.7011 13.5477 13.843C14.1931 12.9845 14.9792 12.5554 15.9058 12.5554C16.6501 12.5554 17.2236 12.8022 17.626 13.2957C18.0283 13.7896 18.2298 14.4086 18.2298 15.153C18.2298 15.6237 18.1462 16.1897 17.9794 16.8502C17.8119 17.5115 17.5883 18.286 17.3072 19.1747C17.0262 20.0634 16.825 20.7656 16.7034 21.2819C16.4909 22.1937 16.6654 22.9794 17.2275 23.6406C17.7895 24.301 18.5261 24.632 19.4378 24.632C21.0481 24.632 22.3656 23.7357 23.3914 21.943C24.4167 20.1508 24.929 17.9785 24.929 15.4268C24.929 13.4675 24.2949 11.8722 23.026 10.642C21.7581 9.4115 19.9923 8.79619 17.7287 8.79619C15.1924 8.79619 13.1377 9.60527 11.5653 11.2229C9.99305 12.8407 9.20687 14.789 9.20687 17.0674C9.20687 18.404 9.58683 19.5434 10.3463 20.4854C10.6044 20.7738 10.6881 21.0931 10.5969 21.4427C10.5208 21.701 10.4069 22.1642 10.2551 22.8323C10.1942 23.0453 10.0842 23.1893 9.92458 23.2655C9.7648 23.3414 9.58643 23.3414 9.38899 23.2655C8.21942 22.7796 7.3342 21.9436 6.73437 20.7588C6.13445 19.5743 5.83446 18.2068 5.83446 16.6578C5.83446 15.6551 5.99782 14.6483 6.32448 13.6386C6.65113 12.6282 7.15623 11.6561 7.83969 10.722C8.52316 9.78755 9.33943 8.95596 10.289 8.22668C11.2382 7.49789 12.4005 6.91681 13.7751 6.48386C15.1496 6.05098 16.6271 5.83446 18.2063 5.83446C19.8169 5.83446 21.313 6.11219 22.6955 6.66653C24.0777 7.22079 25.236 7.95741 26.1706 8.87639C27.1046 9.79545 27.8377 10.8511 28.3689 12.0437C28.9009 13.2359 29.1666 14.4703 29.1666 15.7461C29.1666 19.1793 28.2971 22.0161 26.5579 24.2565C24.8187 26.4971 22.5743 27.6177 19.8251 27.6177C18.9129 27.6177 18.0592 27.4049 17.2614 26.9797C16.4641 26.5545 15.9058 26.0456 15.5867 25.453C14.9184 28.1115 14.516 29.6985 14.3792 30.215C14.0299 31.5519 13.2096 33.1466 11.9185 34.9999H28.4375C30.2449 34.9999 31.7908 34.3581 33.0739 33.0745C34.3575 31.7909 34.9994 30.245 34.9994 28.4375V6.56238C34.9994 4.75507 34.3575 3.20921 33.0742 1.92559Z" fill="white"/>
</svg>
