<svg width="35" height="35" viewBox="0 0 35 35" fill="none" xmlns="http://www.w3.org/2000/svg">
<g clip-path="url(#clip0)">
<path d="M34.3139 25.5964C29.6346 24.8263 27.5258 20.0333 27.4405 19.8298C27.4339 19.8167 27.4295 19.8036 27.4208 19.7905C27.1823 19.3048 27.1254 18.9045 27.2567 18.6004C27.5126 18.001 28.4927 17.6904 29.1402 17.4847C29.3284 17.4257 29.5056 17.3688 29.6521 17.3119C30.2909 17.0603 30.7459 16.7869 31.0478 16.4784C31.4066 16.1087 31.4766 15.7543 31.4722 15.5246C31.4613 14.9646 31.0325 14.4658 30.3478 14.223C30.1181 14.1289 29.8534 14.0786 29.5865 14.0786C29.4049 14.0786 29.1337 14.1027 28.8777 14.223C28.3308 14.479 27.8408 14.619 27.4186 14.6387C27.1954 14.6277 27.0379 14.5796 26.9351 14.5336C26.9482 14.3149 26.9614 14.0896 26.9767 13.8577L26.9832 13.757C27.1342 11.3879 27.3201 8.44117 26.537 6.69109C26.001 5.49229 25.2813 4.46193 24.3953 3.62626C23.6537 2.92623 22.7918 2.35745 21.8336 1.93743C20.1689 1.2024 18.6157 1.09302 17.8369 1.09302H17.8347C17.8041 1.09302 17.7756 1.09302 17.7494 1.09302C17.5328 1.09521 17.1806 1.09958 17.1478 1.09958C16.3712 1.09958 14.8158 1.20896 13.1467 1.94399C12.1907 2.36401 11.3331 2.9306 10.5937 3.63064C9.71213 4.4663 8.9946 5.49447 8.46082 6.6889C7.67766 8.4368 7.86361 11.3835 8.01236 13.7505V13.7549C8.02768 14.0086 8.04518 14.2733 8.06049 14.5315C7.94673 14.5818 7.76079 14.6387 7.48734 14.6387C7.04544 14.6387 6.52042 14.4986 5.92758 14.2208C5.75257 14.1399 5.5535 14.0983 5.33474 14.0983C4.98253 14.0983 4.60845 14.2011 4.28688 14.3915C3.87998 14.6299 3.61747 14.9646 3.54528 15.3387C3.49934 15.5837 3.50153 16.0715 4.04405 16.5659C4.34375 16.8372 4.78127 17.0888 5.34786 17.3119C5.49662 17.371 5.67382 17.4257 5.85976 17.4847C6.50729 17.6904 7.48953 18.001 7.74547 18.6004C7.87454 18.9045 7.81767 19.3048 7.57922 19.7905C7.57265 19.8036 7.56609 19.8167 7.56172 19.8298C7.50046 19.9698 6.94262 21.2277 5.79851 22.5556C5.14879 23.3103 4.43344 23.9425 3.67216 24.4325C2.74243 25.0319 1.73832 25.4213 0.686083 25.5942C0.272626 25.662 -0.0227005 26.0295 0.00136309 26.4473C0.00792589 26.5676 0.0363647 26.688 0.0866796 26.8039V26.8061C0.255125 27.1977 0.642331 27.528 1.27236 27.819C2.0424 28.1755 3.19307 28.4752 4.69596 28.7093C4.77252 28.8537 4.85128 29.2146 4.90597 29.4618C4.96284 29.7244 5.02191 29.9956 5.10723 30.2822C5.19911 30.5928 5.43537 30.9647 6.04571 30.9647C6.27759 30.9647 6.54229 30.9122 6.85075 30.8532C7.30139 30.7657 7.91829 30.6453 8.68614 30.6453C9.11273 30.6453 9.55462 30.6825 9.9987 30.7569C10.8562 30.8991 11.5957 31.4197 12.451 32.0235C13.7023 32.9073 15.1199 33.9071 17.2856 33.9071C17.3447 33.9071 17.4037 33.9049 17.4628 33.9005C17.5328 33.9049 17.6225 33.9071 17.7144 33.9071C19.8801 33.9071 21.2977 32.9073 22.549 32.0257L22.5512 32.0235C23.4065 31.4219 24.1459 30.9013 25.0035 30.7591C25.4475 30.6847 25.8894 30.6475 26.316 30.6475C27.0511 30.6475 27.633 30.7416 28.1514 30.8422C28.4905 30.9078 28.753 30.9407 28.9565 30.9407H28.9762H28.9958C29.4421 30.9407 29.7703 30.6957 29.8949 30.2691C29.9781 29.9869 30.0371 29.7244 30.0962 29.4553C30.1465 29.2234 30.2296 28.8515 30.304 28.7071C31.8069 28.4709 32.9576 28.1733 33.7276 27.8168C34.3555 27.5258 34.7427 27.1955 34.9111 26.8061C34.9614 26.6902 34.9921 26.5698 34.9986 26.4451C35.0227 26.0317 34.7274 25.662 34.3139 25.5964Z" fill="white"/>
</g>
<defs>
<clipPath id="clip0">
<rect width="35" height="35" fill="white"/>
</clipPath>
</defs>
</svg>
