<svg width="20" height="20" viewBox="0 0 20 20" fill="none" xmlns="http://www.w3.org/2000/svg">
<g clip-path="url(#clip0)">
<path d="M19.8731 14.4764L10.3051 4.90834C10.1353 4.73856 9.85997 4.73856 9.69011 4.90834L0.122074 14.4764C-0.0448096 14.6491 -0.0400392 14.9245 0.132756 15.0913C0.301311 15.2541 0.568495 15.2541 0.73705 15.0913L9.99717 5.83123L19.2573 15.0922C19.43 15.2591 19.7054 15.2543 19.8723 15.0816C20.0351 14.913 20.0351 14.6458 19.8723 14.4773L19.8731 14.4764Z" fill="#FFC107"/>
<path d="M19.5652 15.2191C19.4498 15.2193 19.339 15.1736 19.2573 15.0921L9.99717 5.83111L0.73705 15.0921C0.564296 15.259 0.288957 15.2542 0.122074 15.0814C-0.040732 14.9128 -0.040732 14.6457 0.122074 14.4771L9.69011 4.90907C9.85993 4.73929 10.1352 4.73929 10.3051 4.90907L19.8731 14.4771C20.0427 14.6472 20.0422 14.9226 19.8721 15.0922C19.7906 15.1734 19.6803 15.219 19.5652 15.2191Z" fill="white"/>
</g>
<defs>
<clipPath id="clip0">
<rect width="20" height="20" fill="white"/>
</clipPath>
</defs>
</svg>
